Coordinates
version=1
nRows=16
nColumns=33
inDegrees=yes

Units are S.I. units (second, meters, Newtons, ...)
Angles are in degrees.

endheader
time	ground_thorax_rot_x	ground_thorax_rot_y	ground_thorax_rot_z	ground_thorax_tx	ground_thorax_ty	ground_thorax_tz	clav_prot_r	clav_elev_r	scapula_abduction_r	scapula_elevation_r	scapula_upward_rot_r	scapula_winging_r	shoulder_elv_r	plane_of_elev_r	axial_rot_r	elbow_flexion_r	pro_sup_r	wrist_flex_r	wrist_dev_r	clav_prot_l	clav_elev_l	scapula_abduction_l	scapula_elevation_l	scapula_upward_rot_l	scapula_winging_l	shoulder_elv_l	plane_of_elev_l	axial_rot_l	elbow_flexion_l	pro_sup_l	wrist_flex_l	wrist_dev_l
      8.10000000	    -42.96889917	     -4.45470250	      1.15203246	   -139.04386874	    891.48195007	     -2.79469757	      8.00298212	    -45.00000000	     43.23482427	    -45.00000000	    -16.88450477	   2061.62238201	  -2987.27714247	    148.25101380	   -102.65804018	    739.43224042	     85.03057274	     17.27333327	      2.87650103	     15.91772719	     42.02339651	    -44.00546554	    -45.00000000	    -32.23372760	    447.41850105	  -2448.39471585	     22.41208371	    -33.94070126	   1089.42166066	     10.76669080	     11.96450259	    -21.90391874
      8.11000000	    -43.09297936	     -4.58724747	      1.17833561	   -135.69281392	    888.66249447	     -2.34279449	      7.94895084	    -45.00000000	     43.41329779	    -45.00000000	    -16.39784923	   2061.83424199	  -2987.56754685	    148.30032335	   -102.91467147	    739.48340353	     85.52297485	     17.18626473	      2.86866836	     15.84051273	     42.15312436	    -44.14683534	    -45.00000000	    -31.93084358	    447.30197479	  -2448.74292172	     22.51036206	    -33.72682282	   1089.22306300	      9.26827737	     12.23968260	    -21.65649506
      8.12000000	    -43.19274022	     -4.55233823	      1.10303642	   -132.30867644	    885.60617110	     -1.86225759	      7.80777679	    -45.00000000	     43.56021215	    -45.00000000	    -15.67015303	   2062.01319211	  -2987.92372598	    148.38513207	   -103.04716734	    739.51098825	     86.00276637	     17.16087366	      2.88459050	     16.06055146	     42.29655393	    -44.30667472	    -45.00000000	    -31.60460591	    446.99291518	  -2448.98660490	     22.51261130	    -33.41048287	   1089.12431020	      7.71222137	     12.55253547	    -21.38948619
      8.13000000	    -43.26972990	     -4.67099354	      1.10525033	   -128.88491732	    882.32701974	     -1.35636200	      7.73079218	    -45.00000000	     43.73572282	    -45.00000000	    -15.24415719	   2062.27340366	  -2988.26228251	    148.45451543	   -103.26196892	    739.52038978	     86.40755947	     17.12227102	      2.90493215	     16.11050319	     42.43754464	    -44.41298225	    -45.00000000	    -31.40840181	    446.73974598	  -2449.35433462	     22.59112924	    -33.12265278	   1088.95498848	      6.36168254	     12.81078453	    -21.11473230
      8.14000000	    -43.34582336	     -4.66113282	      1.04351619	   -125.41493617	    878.84258487	     -0.82840978	      7.60930590	    -45.00000000	     43.90871757	    -45.00000000	    -14.58152620	   2062.45180042	  -2988.69739017	    148.54762125	   -103.34127381	    739.54140740	     86.74822587	     17.07323983	      2.92439298	     16.31692640	     42.55206475	    -44.53695636	    -45.00000000	    -31.24289487	    446.33353965	  -2449.61608496	     22.63769160	    -32.55533382	   1088.82211723	      4.96552446	     13.17394017	    -20.80681695
      8.15000000	    -43.42622920	     -4.84568472	      1.16440882	   -121.88937597	    875.17352660	     -0.28096494	      7.56441232	    -45.00000000	     43.99830148	    -45.00000000	    -14.39246689	   2062.74995408	  -2989.09354827	    148.66111052	   -103.74187250	    739.54772731	     86.94239237	     17.09728546	      2.96641459	     16.37865038	     42.68728194	    -44.64168010	    -45.00000000	    -31.14004910	    446.05959056	  -2450.00336212	     22.73689535	    -32.25570591	   1088.63673233	      3.90623107	     13.36401890	    -20.52009228
      8.16000000	    -43.47910836	     -5.03897027	      1.34851801	   -118.30386843	    871.34411349	      0.28346032	      7.53644003	    -45.00000000	     44.07010564	    -45.00000000	    -14.41928961	   2063.08155422	  -2989.49619751	    148.77979970	   -104.20547771	    739.51065874	     86.97279983	     17.09533560	      3.01503907	     16.41469114	     42.78122191	    -44.78026443	    -45.00000000	    -31.14182218	    445.75624497	  -2450.46297342	     22.88265285	    -31.86227549	   1088.42248039	      3.05177873	     13.55146753	    -20.22653571
      8.17000000	    -43.53611927	     -5.09406548	      1.30795258	   -114.65743971	    867.37820596	      0.86210917	      7.42392007	    -45.00000000	     44.20415051	    -45.00000000	    -13.94582760	   2063.30999680	  -2989.98477446	    148.87126624	   -104.50580739	    739.48743599	     86.78704543	     17.16391372	      3.08402545	     16.67373158	     42.89936356	    -44.85419267	    -45.00000000	    -31.06397521	    445.30803447	  -2450.73581253	     22.99319669	    -31.13260683	   1088.32559310	      2.34324219	     13.79244043	    -19.94600051
      8.18000000	    -43.56157263	     -5.22298666	      1.35638429	   -110.95503927	    863.30235799	      1.45289398	      7.35636782	    -45.00000000	     44.31548875	    -45.00000000	    -13.76009091	   2063.63184052	  -2990.43193109	    148.97827455	   -104.91920531	    739.37321713	     86.38058439	     17.24868228	      3.18374436	     16.85847573	     43.00890445	    -44.93217655	    -45.00000000	    -31.05532119	    444.85883849	  -2451.09997934	     23.13470862	    -30.45026205	   1088.16264224	      1.93375438	     13.94010832	    -19.67797957
      8.19000000	    -43.63535536	     -5.61719267	      1.49468257	   -107.20942888	    859.14380225	      2.05257349	      7.60623862	    -45.00000000	     44.29247898	    -45.00000000	    -14.62522046	   2064.09848746	  -2990.97847959	    148.71921653	   -105.02022041	    739.28230147	     85.82595081	     16.85902777	      3.18798966	     15.63918898	     42.99640572	    -44.76316707	    -45.00000000	    -31.03352178	    444.87702530	  -2451.60708717	     23.61855484	    -30.67352974	   1088.08298542	      2.00404107	     14.16488752	    -19.44609146
      8.20000000	    -43.59083176	     -5.79687809	      1.70724987	   -103.44031859	    854.92588461	      2.65725533	      7.31943948	    -45.00000000	     44.40092883	    -45.00000000	    -14.29752957	   2064.50388218	  -2991.28165739	    149.09171776	   -105.98512892	    739.20419237	     85.00617051	     17.35296509	      3.37630601	     16.80842835	     43.10801222	    -45.00000000	    -45.00000000	    -31.40075294	    444.19687813	  -2451.98867054	     23.65834496	    -29.11866079	   1087.84364370	      2.02406260	     14.05943872	    -19.22922505
      8.21000000	    -43.64701816	     -6.26879346	      2.03424696	    -99.66306685	    850.67004679	      3.26304743	      7.81986902	    -45.00000000	     44.06801194	    -45.00000000	    -15.69703549	   2065.03525213	  -2991.83092513	    148.77057662	   -106.37029059	    738.97094974	     83.92064956	     17.14517823	      3.46757484	     15.88935298	     42.81766964	    -44.78846235	    -45.00000000	    -32.09182042	    443.69345910	  -2452.05369862	     24.19649600	    -28.51838215	   1087.71767902	      2.49103700	     14.24046274	    -18.99479505
      8.22000000	    -43.59125851	     -6.22960675	      1.93794999	    -95.90535580	    846.39948034	      3.86517831	      7.16211503	    -45.00000000	     44.40990669	    -45.00000000	    -14.34034343	   2065.27808373	  -2992.28557492	    149.36734140	   -107.16003086	    738.80623457	     82.32321058	     17.70035327	      3.74176565	     17.37471934	     43.21207872	    -45.00000000	    -45.00000000	    -31.71409848	    442.89227264	  -2452.45786387	     23.96843440	    -26.86205211	   1087.48689909	      3.18459740	     14.12179401	    -18.84743671
      8.23000000	    -43.54161677	     -6.64176940	      2.23389587	    -92.18840078	    842.14057548	      4.45893268	      7.24124579	    -45.00000000	     44.35243601	    -45.00000000	    -14.99253091	   2065.75538806	  -2992.66529245	    149.33907186	   -107.42461868	    738.57068701	     80.50703580	     17.75005448	      3.91297836	     17.19424026	     43.12187379	    -45.00000000	    -45.00000000	    -32.35456710	    442.64799350	  -2452.95043978	     24.54861107	    -26.16316770	   1087.36279532	      4.13465352	     13.99189480	    -18.71945078
      8.24000000	    -43.52956431	     -5.91823500	      1.23853447	    -88.53284360	    837.91074489	      5.03973757	      7.06971780	    -45.00000000	     45.00000000	    -45.00000000	    -12.83672277	   2065.57733743	  -2993.53502733	    149.43269876	   -107.69868838	    738.14398170	     77.22128153	     18.01335737	      4.26602816	     17.70105055	     43.47749082	    -45.00000000	    -45.00000000	    -31.49973307	    441.47631114	  -2452.71410112	     24.37583970	    -24.20535104	   1087.35356707	      5.61364933	     14.37322813	    -18.61110088
      8.25000000	    -43.52130638	     -6.29626165	      1.48516776	    -84.96131212	    833.74473515	      5.60218102	      6.95944856	    -45.00000000	     45.00000000	    -45.00000000	    -13.25818975	   2066.12836161	  -2993.93639334	    149.63415037	   -108.43614355	    737.71621058	     73.94173579	     18.34338971	      4.65863598	     18.12821687	     43.48767832	    -45.00000000	    -45.00000000	    -31.86272856	    440.95374029	  -2453.02487260	     24.59547279	    -23.26266743	   1087.16671327	      7.05529177	     14.23009162	    -18.55472989
